<svg xmlns="http://www.w3.org/2000/svg" width="460" height="280" viewBox="0 0 460 280">
  <defs>
    <style>
      @import url('https://fonts.googleapis.com/css2?family=JetBrains+Mono:wght@400;500;700&amp;display=swap');
    </style>
  </defs>
  <title>Most Used Languages</title>
  <rect width="460" height="280" rx="12" fill="#0d1117" /><rect width="460" height="280" rx="12" fill="none" stroke="#30363d" stroke-width="1" /><text x="24" y="32" font-family="'JetBrains Mono', 'Courier New', monospace" font-size="14" fill="white" font-weight="700">Most Used Languages</text><text x="444" y="32" font-family="'JetBrains Mono', 'Courier New', monospace" font-size="10" fill="#7d8590" text-anchor="end">Updated May 20, 2026</text><line x1="16" y1="44" x2="444" y2="44" stroke="#30363d" stroke-width="1"/><path d="M 141.57 50.01 A 90 90 0 1 1 88.41 213.75 L 110.19 182.61 A 52 52 0 1 0 140.91 88.01 Z" fill="#2b7489" opacity="0">  <animate attributeName="opacity" from="0" to="1" dur="0.4s" begin="0ms" fill="freeze" /></path><path d="M 85.87 211.90 A 90 90 0 0 1 67.20 87.09 L 97.94 109.43 A 52 52 0 0 0 108.73 181.54 Z" fill="#f1e05a" opacity="0">  <animate attributeName="opacity" from="0" to="1" dur="0.4s" begin="80ms" fill="freeze" /></path><path d="M 69.09 84.58 A 90 90 0 0 1 97.94 60.43 L 115.70 94.03 A 52 52 0 0 0 99.03 107.98 Z" fill="#3572A5" opacity="0">  <animate attributeName="opacity" from="0" to="1" dur="0.4s" begin="160ms" fill="freeze" /></path><path d="M 100.75 59.01 A 90 90 0 0 1 130.19 50.54 L 134.33 88.31 A 52 52 0 0 0 117.32 93.21 Z" fill="#563d7c" opacity="0">  <animate attributeName="opacity" from="0" to="1" dur="0.4s" begin="240ms" fill="freeze" /></path><path d="M 133.32 50.25 A 90 90 0 0 1 137.51 50.03 L 138.56 88.02 A 52 52 0 0 0 136.14 88.14 Z" fill="#e34c26" opacity="0">  <animate attributeName="opacity" from="0" to="1" dur="0.4s" begin="320ms" fill="freeze" /></path><path d="M 140.65 50.00 A 90 90 0 0 1 138.16 50.02 L 138.94 88.01 A 52 52 0 0 0 140.37 88.00 Z" fill="#89e051" opacity="0">  <animate attributeName="opacity" from="0" to="1" dur="0.4s" begin="400ms" fill="freeze" /></path><path d="M 141.30 50.01 A 90 90 0 0 1 138.31 50.02 L 139.02 88.01 A 52 52 0 0 0 140.75 88.01 Z" fill="#39d353" opacity="0">  <animate attributeName="opacity" from="0" to="1" dur="0.4s" begin="480ms" fill="freeze" /></path><path d="M 141.45 50.01 A 90 90 0 0 1 138.43 50.01 L 139.09 88.01 A 52 52 0 0 0 140.84 88.01 Z" fill="#ffa657" opacity="0">  <animate attributeName="opacity" from="0" to="1" dur="0.4s" begin="560ms" fill="freeze" /></path><text x="140" y="132" font-family="'JetBrains Mono', 'Courier New', monospace" font-size="11" fill="#7d8590" text-anchor="middle">languages</text><text x="140" y="154" font-family="'JetBrains Mono', 'Courier New', monospace" font-size="22" fill="white" font-weight="700" text-anchor="middle">8</text><rect x="256" y="56" width="10" height="10" rx="2" fill="#2b7489" opacity="0"><animate attributeName="opacity" from="0" to="1" dur="0.4s" begin="0ms" fill="freeze" /></rect><text x="274" y="65" font-family="'JetBrains Mono', 'Courier New', monospace" font-size="12" fill="white" opacity="0"><animate attributeName="opacity" from="0" to="1" dur="0.4s" begin="0ms" fill="freeze" />TypeScript</text><text x="448" y="65" font-family="'JetBrains Mono', 'Courier New', monospace" font-size="12" fill="#7d8590" text-anchor="end" opacity="0"><animate attributeName="opacity" from="0" to="1" dur="0.4s" begin="0ms" fill="freeze" />60.0%</text><rect x="274" y="70" width="174" height="2" rx="1" fill="#21262d" /><rect x="274" y="70" width="0" height="2" rx="1" fill="#2b7489"><animate attributeName="width" from="0" to="104.4" dur="0.6s" begin="0ms" fill="freeze" /></rect><rect x="256" y="84" width="10" height="10" rx="2" fill="#f1e05a" opacity="0"><animate attributeName="opacity" from="0" to="1" dur="0.4s" begin="80ms" fill="freeze" /></rect><text x="274" y="93" font-family="'JetBrains Mono', 'Courier New', monospace" font-size="12" fill="white" opacity="0"><animate attributeName="opacity" from="0" to="1" dur="0.4s" begin="80ms" fill="freeze" />JavaScript</text><text x="448" y="93" font-family="'JetBrains Mono', 'Courier New', monospace" font-size="12" fill="#7d8590" text-anchor="end" opacity="0"><animate attributeName="opacity" from="0" to="1" dur="0.4s" begin="80ms" fill="freeze" />25.3%</text><rect x="274" y="98" width="174" height="2" rx="1" fill="#21262d" /><rect x="274" y="98" width="0" height="2" rx="1" fill="#f1e05a"><animate attributeName="width" from="0" to="44.0" dur="0.6s" begin="80ms" fill="freeze" /></rect><rect x="256" y="112" width="10" height="10" rx="2" fill="#3572A5" opacity="0"><animate attributeName="opacity" from="0" to="1" dur="0.4s" begin="160ms" fill="freeze" /></rect><text x="274" y="121" font-family="'JetBrains Mono', 'Courier New', monospace" font-size="12" fill="white" opacity="0"><animate attributeName="opacity" from="0" to="1" dur="0.4s" begin="160ms" fill="freeze" />Python</text><text x="448" y="121" font-family="'JetBrains Mono', 'Courier New', monospace" font-size="12" fill="#7d8590" text-anchor="end" opacity="0"><animate attributeName="opacity" from="0" to="1" dur="0.4s" begin="160ms" fill="freeze" />7.3%</text><rect x="274" y="126" width="174" height="2" rx="1" fill="#21262d" /><rect x="274" y="126" width="0" height="2" rx="1" fill="#3572A5"><animate attributeName="width" from="0" to="12.6" dur="0.6s" begin="160ms" fill="freeze" /></rect><rect x="256" y="140" width="10" height="10" rx="2" fill="#563d7c" opacity="0"><animate attributeName="opacity" from="0" to="1" dur="0.4s" begin="240ms" fill="freeze" /></rect><text x="274" y="149" font-family="'JetBrains Mono', 'Courier New', monospace" font-size="12" fill="white" opacity="0"><animate attributeName="opacity" from="0" to="1" dur="0.4s" begin="240ms" fill="freeze" />CSS</text><text x="448" y="149" font-family="'JetBrains Mono', 'Courier New', monospace" font-size="12" fill="#7d8590" text-anchor="end" opacity="0"><animate attributeName="opacity" from="0" to="1" dur="0.4s" begin="240ms" fill="freeze" />6.0%</text><rect x="274" y="154" width="174" height="2" rx="1" fill="#21262d" /><rect x="274" y="154" width="0" height="2" rx="1" fill="#563d7c"><animate attributeName="width" from="0" to="10.4" dur="0.6s" begin="240ms" fill="freeze" /></rect><rect x="256" y="168" width="10" height="10" rx="2" fill="#e34c26" opacity="0"><animate attributeName="opacity" from="0" to="1" dur="0.4s" begin="320ms" fill="freeze" /></rect><text x="274" y="177" font-family="'JetBrains Mono', 'Courier New', monospace" font-size="12" fill="white" opacity="0"><animate attributeName="opacity" from="0" to="1" dur="0.4s" begin="320ms" fill="freeze" />HTML</text><text x="448" y="177" font-family="'JetBrains Mono', 'Courier New', monospace" font-size="12" fill="#7d8590" text-anchor="end" opacity="0"><animate attributeName="opacity" from="0" to="1" dur="0.4s" begin="320ms" fill="freeze" />1.3%</text><rect x="274" y="182" width="174" height="2" rx="1" fill="#21262d" /><rect x="274" y="182" width="0" height="2" rx="1" fill="#e34c26"><animate attributeName="width" from="0" to="2.3" dur="0.6s" begin="320ms" fill="freeze" /></rect><rect x="256" y="196" width="10" height="10" rx="2" fill="#89e051" opacity="0"><animate attributeName="opacity" from="0" to="1" dur="0.4s" begin="400ms" fill="freeze" /></rect><text x="274" y="205" font-family="'JetBrains Mono', 'Courier New', monospace" font-size="12" fill="white" opacity="0"><animate attributeName="opacity" from="0" to="1" dur="0.4s" begin="400ms" fill="freeze" />Shell</text><text x="448" y="205" font-family="'JetBrains Mono', 'Courier New', monospace" font-size="12" fill="#7d8590" text-anchor="end" opacity="0"><animate attributeName="opacity" from="0" to="1" dur="0.4s" begin="400ms" fill="freeze" />0.1%</text><rect x="274" y="210" width="174" height="2" rx="1" fill="#21262d" /><rect x="274" y="210" width="0" height="2" rx="1" fill="#89e051"><animate attributeName="width" from="0" to="0.2" dur="0.6s" begin="400ms" fill="freeze" /></rect><rect x="256" y="224" width="10" height="10" rx="2" fill="#39d353" opacity="0"><animate attributeName="opacity" from="0" to="1" dur="0.4s" begin="480ms" fill="freeze" /></rect><text x="274" y="233" font-family="'JetBrains Mono', 'Courier New', monospace" font-size="12" fill="white" opacity="0"><animate attributeName="opacity" from="0" to="1" dur="0.4s" begin="480ms" fill="freeze" />Dockerfile</text><text x="448" y="233" font-family="'JetBrains Mono', 'Courier New', monospace" font-size="12" fill="#7d8590" text-anchor="end" opacity="0"><animate attributeName="opacity" from="0" to="1" dur="0.4s" begin="480ms" fill="freeze" />0.0%</text><rect x="274" y="238" width="174" height="2" rx="1" fill="#21262d" /><rect x="274" y="238" width="0" height="2" rx="1" fill="#39d353"><animate attributeName="width" from="0" to="0.0" dur="0.6s" begin="480ms" fill="freeze" /></rect><rect x="256" y="252" width="10" height="10" rx="2" fill="#ffa657" opacity="0"><animate attributeName="opacity" from="0" to="1" dur="0.4s" begin="560ms" fill="freeze" /></rect><text x="274" y="261" font-family="'JetBrains Mono', 'Courier New', monospace" font-size="12" fill="white" opacity="0"><animate attributeName="opacity" from="0" to="1" dur="0.4s" begin="560ms" fill="freeze" />PowerShell</text><text x="448" y="261" font-family="'JetBrains Mono', 'Courier New', monospace" font-size="12" fill="#7d8590" text-anchor="end" opacity="0"><animate attributeName="opacity" from="0" to="1" dur="0.4s" begin="560ms" fill="freeze" />0.0%</text><rect x="274" y="266" width="174" height="2" rx="1" fill="#21262d" /><rect x="274" y="266" width="0" height="2" rx="1" fill="#ffa657"><animate attributeName="width" from="0" to="0.0" dur="0.6s" begin="560ms" fill="freeze" /></rect>
</svg>