<svg xmlns="http://www.w3.org/2000/svg" width="460" height="280" viewBox="0 0 460 280">
  <defs>
    <style>
      @import url('https://fonts.googleapis.com/css2?family=JetBrains+Mono:wght@400;500;700&amp;display=swap');
    </style>
  </defs>
  <title>Most Used Languages</title>
  <rect width="460" height="280" rx="12" fill="#0d1117" /><rect width="460" height="280" rx="12" fill="none" stroke="#30363d" stroke-width="1" /><text x="24" y="32" font-family="'JetBrains Mono', 'Courier New', monospace" font-size="14" fill="white" font-weight="700">Most Used Languages</text><text x="444" y="32" font-family="'JetBrains Mono', 'Courier New', monospace" font-size="10" fill="#7d8590" text-anchor="end">Updated Apr 30, 2026</text><line x1="16" y1="44" x2="444" y2="44" stroke="#30363d" stroke-width="1"/><path d="M 141.57 50.01 A 90 90 0 1 1 137.56 229.97 L 138.59 191.98 A 52 52 0 1 0 140.91 88.01 Z" fill="#2b7489" opacity="0">  <animate attributeName="opacity" from="0" to="1" dur="0.4s" begin="0ms" fill="freeze" /></path><path d="M 134.42 229.83 A 90 90 0 0 1 51.69 122.66 L 88.97 129.98 A 52 52 0 0 0 136.78 191.90 Z" fill="#f1e05a" opacity="0">  <animate attributeName="opacity" from="0" to="1" dur="0.4s" begin="80ms" fill="freeze" /></path><path d="M 52.35 119.59 A 90 90 0 0 1 72.73 80.21 L 101.13 105.46 A 52 52 0 0 0 89.36 128.21 Z" fill="#e34c26" opacity="0">  <animate attributeName="opacity" from="0" to="1" dur="0.4s" begin="160ms" fill="freeze" /></path><path d="M 74.86 77.90 A 90 90 0 0 1 104.04 57.49 L 119.23 92.33 A 52 52 0 0 0 102.36 104.12 Z" fill="#3572A5" opacity="0">  <animate attributeName="opacity" from="0" to="1" dur="0.4s" begin="240ms" fill="freeze" /></path><path d="M 106.95 56.29 A 90 90 0 0 1 137.35 50.04 L 138.47 88.02 A 52 52 0 0 0 120.90 91.63 Z" fill="#563d7c" opacity="0">  <animate attributeName="opacity" from="0" to="1" dur="0.4s" begin="320ms" fill="freeze" /></path><path d="M 140.49 50.00 A 90 90 0 0 1 138.15 50.02 L 138.93 88.01 A 52 52 0 0 0 140.28 88.00 Z" fill="#89e051" opacity="0">  <animate attributeName="opacity" from="0" to="1" dur="0.4s" begin="400ms" fill="freeze" /></path><path d="M 141.29 50.01 A 90 90 0 0 1 138.30 50.02 L 139.02 88.01 A 52 52 0 0 0 140.75 88.01 Z" fill="#39d353" opacity="0">  <animate attributeName="opacity" from="0" to="1" dur="0.4s" begin="480ms" fill="freeze" /></path><path d="M 141.44 50.01 A 90 90 0 0 1 138.43 50.01 L 139.09 88.01 A 52 52 0 0 0 140.83 88.01 Z" fill="#ffa657" opacity="0">  <animate attributeName="opacity" from="0" to="1" dur="0.4s" begin="560ms" fill="freeze" /></path><text x="140" y="132" font-family="'JetBrains Mono', 'Courier New', monospace" font-size="11" fill="#7d8590" text-anchor="middle">languages</text><text x="140" y="154" font-family="'JetBrains Mono', 'Courier New', monospace" font-size="22" fill="white" font-weight="700" text-anchor="middle">8</text><rect x="256" y="56" width="10" height="10" rx="2" fill="#2b7489" opacity="0"><animate attributeName="opacity" from="0" to="1" dur="0.4s" begin="0ms" fill="freeze" /></rect><text x="274" y="65" font-family="'JetBrains Mono', 'Courier New', monospace" font-size="12" fill="white" opacity="0"><animate attributeName="opacity" from="0" to="1" dur="0.4s" begin="0ms" fill="freeze" />TypeScript</text><text x="448" y="65" font-family="'JetBrains Mono', 'Courier New', monospace" font-size="12" fill="#7d8590" text-anchor="end" opacity="0"><animate attributeName="opacity" from="0" to="1" dur="0.4s" begin="0ms" fill="freeze" />50.7%</text><rect x="274" y="70" width="174" height="2" rx="1" fill="#21262d" /><rect x="274" y="70" width="0" height="2" rx="1" fill="#2b7489"><animate attributeName="width" from="0" to="88.2" dur="0.6s" begin="0ms" fill="freeze" /></rect><rect x="256" y="84" width="10" height="10" rx="2" fill="#f1e05a" opacity="0"><animate attributeName="opacity" from="0" to="1" dur="0.4s" begin="80ms" fill="freeze" /></rect><text x="274" y="93" font-family="'JetBrains Mono', 'Courier New', monospace" font-size="12" fill="white" opacity="0"><animate attributeName="opacity" from="0" to="1" dur="0.4s" begin="80ms" fill="freeze" />JavaScript</text><text x="448" y="93" font-family="'JetBrains Mono', 'Courier New', monospace" font-size="12" fill="#7d8590" text-anchor="end" opacity="0"><animate attributeName="opacity" from="0" to="1" dur="0.4s" begin="80ms" fill="freeze" />27.7%</text><rect x="274" y="98" width="174" height="2" rx="1" fill="#21262d" /><rect x="274" y="98" width="0" height="2" rx="1" fill="#f1e05a"><animate attributeName="width" from="0" to="48.1" dur="0.6s" begin="80ms" fill="freeze" /></rect><rect x="256" y="112" width="10" height="10" rx="2" fill="#e34c26" opacity="0"><animate attributeName="opacity" from="0" to="1" dur="0.4s" begin="160ms" fill="freeze" /></rect><text x="274" y="121" font-family="'JetBrains Mono', 'Courier New', monospace" font-size="12" fill="white" opacity="0"><animate attributeName="opacity" from="0" to="1" dur="0.4s" begin="160ms" fill="freeze" />HTML</text><text x="448" y="121" font-family="'JetBrains Mono', 'Courier New', monospace" font-size="12" fill="#7d8590" text-anchor="end" opacity="0"><animate attributeName="opacity" from="0" to="1" dur="0.4s" begin="160ms" fill="freeze" />8.5%</text><rect x="274" y="126" width="174" height="2" rx="1" fill="#21262d" /><rect x="274" y="126" width="0" height="2" rx="1" fill="#e34c26"><animate attributeName="width" from="0" to="14.8" dur="0.6s" begin="160ms" fill="freeze" /></rect><rect x="256" y="140" width="10" height="10" rx="2" fill="#3572A5" opacity="0"><animate attributeName="opacity" from="0" to="1" dur="0.4s" begin="240ms" fill="freeze" /></rect><text x="274" y="149" font-family="'JetBrains Mono', 'Courier New', monospace" font-size="12" fill="white" opacity="0"><animate attributeName="opacity" from="0" to="1" dur="0.4s" begin="240ms" fill="freeze" />Python</text><text x="448" y="149" font-family="'JetBrains Mono', 'Courier New', monospace" font-size="12" fill="#7d8590" text-anchor="end" opacity="0"><animate attributeName="opacity" from="0" to="1" dur="0.4s" begin="240ms" fill="freeze" />6.9%</text><rect x="274" y="154" width="174" height="2" rx="1" fill="#21262d" /><rect x="274" y="154" width="0" height="2" rx="1" fill="#3572A5"><animate attributeName="width" from="0" to="12.0" dur="0.6s" begin="240ms" fill="freeze" /></rect><rect x="256" y="168" width="10" height="10" rx="2" fill="#563d7c" opacity="0"><animate attributeName="opacity" from="0" to="1" dur="0.4s" begin="320ms" fill="freeze" /></rect><text x="274" y="177" font-family="'JetBrains Mono', 'Courier New', monospace" font-size="12" fill="white" opacity="0"><animate attributeName="opacity" from="0" to="1" dur="0.4s" begin="320ms" fill="freeze" />CSS</text><text x="448" y="177" font-family="'JetBrains Mono', 'Courier New', monospace" font-size="12" fill="#7d8590" text-anchor="end" opacity="0"><animate attributeName="opacity" from="0" to="1" dur="0.4s" begin="320ms" fill="freeze" />6.1%</text><rect x="274" y="182" width="174" height="2" rx="1" fill="#21262d" /><rect x="274" y="182" width="0" height="2" rx="1" fill="#563d7c"><animate attributeName="width" from="0" to="10.6" dur="0.6s" begin="320ms" fill="freeze" /></rect><rect x="256" y="196" width="10" height="10" rx="2" fill="#89e051" opacity="0"><animate attributeName="opacity" from="0" to="1" dur="0.4s" begin="400ms" fill="freeze" /></rect><text x="274" y="205" font-family="'JetBrains Mono', 'Courier New', monospace" font-size="12" fill="white" opacity="0"><animate attributeName="opacity" from="0" to="1" dur="0.4s" begin="400ms" fill="freeze" />Shell</text><text x="448" y="205" font-family="'JetBrains Mono', 'Courier New', monospace" font-size="12" fill="#7d8590" text-anchor="end" opacity="0"><animate attributeName="opacity" from="0" to="1" dur="0.4s" begin="400ms" fill="freeze" />0.1%</text><rect x="274" y="210" width="174" height="2" rx="1" fill="#21262d" /><rect x="274" y="210" width="0" height="2" rx="1" fill="#89e051"><animate attributeName="width" from="0" to="0.2" dur="0.6s" begin="400ms" fill="freeze" /></rect><rect x="256" y="224" width="10" height="10" rx="2" fill="#39d353" opacity="0"><animate attributeName="opacity" from="0" to="1" dur="0.4s" begin="480ms" fill="freeze" /></rect><text x="274" y="233" font-family="'JetBrains Mono', 'Courier New', monospace" font-size="12" fill="white" opacity="0"><animate attributeName="opacity" from="0" to="1" dur="0.4s" begin="480ms" fill="freeze" />Dockerfile</text><text x="448" y="233" font-family="'JetBrains Mono', 'Courier New', monospace" font-size="12" fill="#7d8590" text-anchor="end" opacity="0"><animate attributeName="opacity" from="0" to="1" dur="0.4s" begin="480ms" fill="freeze" />0.0%</text><rect x="274" y="238" width="174" height="2" rx="1" fill="#21262d" /><rect x="274" y="238" width="0" height="2" rx="1" fill="#39d353"><animate attributeName="width" from="0" to="0.0" dur="0.6s" begin="480ms" fill="freeze" /></rect><rect x="256" y="252" width="10" height="10" rx="2" fill="#ffa657" opacity="0"><animate attributeName="opacity" from="0" to="1" dur="0.4s" begin="560ms" fill="freeze" /></rect><text x="274" y="261" font-family="'JetBrains Mono', 'Courier New', monospace" font-size="12" fill="white" opacity="0"><animate attributeName="opacity" from="0" to="1" dur="0.4s" begin="560ms" fill="freeze" />PowerShell</text><text x="448" y="261" font-family="'JetBrains Mono', 'Courier New', monospace" font-size="12" fill="#7d8590" text-anchor="end" opacity="0"><animate attributeName="opacity" from="0" to="1" dur="0.4s" begin="560ms" fill="freeze" />0.0%</text><rect x="274" y="266" width="174" height="2" rx="1" fill="#21262d" /><rect x="274" y="266" width="0" height="2" rx="1" fill="#ffa657"><animate attributeName="width" from="0" to="0.0" dur="0.6s" begin="560ms" fill="freeze" /></rect>
</svg>