<svg xmlns="http://www.w3.org/2000/svg" width="460" height="224" viewBox="0 0 460 224">
  <defs>
    <style>
      @import url('https://fonts.googleapis.com/css2?family=JetBrains+Mono:wght@400;500;700&amp;display=swap');
    </style>
  </defs>
  <title>Top Repositories</title>
  <rect width="460" height="224" rx="12" fill="#0d1117" /><rect width="460" height="224" rx="12" fill="none" stroke="#30363d" stroke-width="1" /><text x="24" y="32" font-family="'JetBrains Mono', 'Courier New', monospace" font-size="14" fill="white" font-weight="700">Top Repositories</text><text x="444" y="32" font-family="'JetBrains Mono', 'Courier New', monospace" font-size="10" fill="#7d8590" text-anchor="end">Updated Mar 02, 2026</text><line x1="16" y1="44" x2="444" y2="44" stroke="#30363d" stroke-width="1"/><rect x="24" y="70" width="22" height="22" rx="4" fill="#21262d" /><text x="35" y="85" font-family="'JetBrains Mono', 'Courier New', monospace" font-size="11" fill="#7d8590" text-anchor="middle" font-weight="700">#1</text><text x="56" y="83" font-family="'JetBrains Mono', 'Courier New', monospace" font-size="13" fill="#58a6ff" font-weight="700" opacity="0"><animate attributeName="opacity" from="0" to="1" dur="0.4s" begin="0ms" fill="freeze" />Null-dk</text><text x="56" y="100" font-family="'JetBrains Mono', 'Courier New', monospace" font-size="11" fill="#7d8590" opacity="0"><animate attributeName="opacity" from="0" to="1" dur="0.4s" begin="0ms" fill="freeze" />No description</text><g transform="translate(340,74) scale(0.5)"><path d="M12 2l3.09 6.26L22 9.27l-5 4.87 1.18 6.88L12 17.77l-6.18 3.25L7 14.14 2 9.27l6.91-1.01L12 2z" fill="#d29922" stroke="#d29922" stroke-width="1.5" stroke-linejoin="round"/></g><text x="356" y="85" font-family="'JetBrains Mono', 'Courier New', monospace" font-size="12" fill="#d29922">0</text><g transform="translate(400,74) scale(0.5)"><path d="M6 2a1 1 0 0 0-1 1v1H4a1 1 0 0 0 0 2h1v1a3 3 0 0 0 2 2.83V15a3 3 0 1 0 2 0V9.83A3 3 0 0 0 7 7V6h1a1 1 0 0 0 0-2H7V3a1 1 0 0 0-1-1z" fill="#7d8590"/></g><text x="416" y="85" font-family="'JetBrains Mono', 'Courier New', monospace" font-size="12" fill="#7d8590">0</text><line x1="24" y1="130" x2="436" y2="130" stroke="#30363d" stroke-width="1" opacity="0.5"/><rect x="24" y="144" width="22" height="22" rx="4" fill="#21262d" /><text x="35" y="159" font-family="'JetBrains Mono', 'Courier New', monospace" font-size="11" fill="#7d8590" text-anchor="middle" font-weight="700">#2</text><text x="56" y="157" font-family="'JetBrains Mono', 'Courier New', monospace" font-size="13" fill="#58a6ff" font-weight="700" opacity="0"><animate attributeName="opacity" from="0" to="1" dur="0.4s" begin="100ms" fill="freeze" />Null.com</text><text x="56" y="174" font-family="'JetBrains Mono', 'Courier New', monospace" font-size="11" fill="#7d8590" opacity="0"><animate attributeName="opacity" from="0" to="1" dur="0.4s" begin="100ms" fill="freeze" />https://n-ull.com website</text><g transform="translate(340,148) scale(0.5)"><path d="M12 2l3.09 6.26L22 9.27l-5 4.87 1.18 6.88L12 17.77l-6.18 3.25L7 14.14 2 9.27l6.91-1.01L12 2z" fill="#d29922" stroke="#d29922" stroke-width="1.5" stroke-linejoin="round"/></g><text x="356" y="159" font-family="'JetBrains Mono', 'Courier New', monospace" font-size="12" fill="#d29922">0</text><g transform="translate(400,148) scale(0.5)"><path d="M6 2a1 1 0 0 0-1 1v1H4a1 1 0 0 0 0 2h1v1a3 3 0 0 0 2 2.83V15a3 3 0 1 0 2 0V9.83A3 3 0 0 0 7 7V6h1a1 1 0 0 0 0-2H7V3a1 1 0 0 0-1-1z" fill="#7d8590"/></g><text x="416" y="159" font-family="'JetBrains Mono', 'Courier New', monospace" font-size="12" fill="#7d8590">0</text><circle cx="57" cy="187" r="5" fill="#f1e05a"/><text x="68" y="191" font-family="'JetBrains Mono', 'Courier New', monospace" font-size="11" fill="#7d8590">JavaScript</text>
</svg>